<svg width="22" height="22" viewBox="0 0 22 22" fill="none" xmlns="http://www.w3.org/2000/svg">
<path d="M21 11C21 16.523 16.523 21 11 21C5.477 21 1 16.523 1 11C1 5.477 5.477 1 11 1M18 1V4M18 4V7M18 4H21M18 4H15" stroke="black" stroke-width="2" stroke-linecap="round" stroke-linejoin="round"/>
<path fill-rule="evenodd" clip-rule="evenodd" d="M5.978 5.488C6.42372 5.17397 6.95478 5.00369 7.5 5C7.91 5 8.503 5.115 9.022 5.488C9.592 5.898 10 6.574 10 7.5C10 8.426 9.592 9.101 9.022 9.511C8.5764 9.82539 8.04533 9.99601 7.5 10C7.09 10 6.497 9.885 5.978 9.511C5.408 9.101 5 8.427 5 7.5C5 6.574 5.408 5.899 5.978 5.488ZM15.331 20.944C17.611 20.177 22 17.143 22 11C22 10.7348 21.8946 10.4804 21.7071 10.2929C21.5196 10.1054 21.2652 10 21 10H20C15.197 10 11.79 11.072 9.445 12.622C11.48 13.284 13.521 14.442 15.075 16.373C15.2413 16.5799 15.3186 16.8443 15.2899 17.1082C15.2612 17.3721 15.1289 17.6137 14.922 17.78C14.7151 17.9463 14.4507 18.0236 14.1868 17.9949C13.923 17.9662 13.6813 17.8339 13.515 17.627C12 15.743 9.865 14.715 7.719 14.217C6.56081 13.9525 5.376 13.8223 4.188 13.829C3.404 13.832 2.711 13.895 2.164 13.986C2.08739 13.999 2.00954 14.003 1.932 13.998L1.836 14.014C1.68777 14.0388 1.54702 14.0966 1.42423 14.1832C1.30143 14.2699 1.19974 14.3831 1.12671 14.5144C1.05369 14.6458 1.0112 14.7919 1.00243 14.9419C0.993646 15.092 1.01879 15.242 1.076 15.381C1.728 16.965 3.211 19.104 5.586 20.478C8.006 21.877 11.27 22.436 15.331 20.944Z" fill="black"/>
</svg>
