<svg width="20" height="20" viewBox="0 0 20 20" fill="none" xmlns="http://www.w3.org/2000/svg">
<path fill-rule="evenodd" clip-rule="evenodd" d="M0 9.99899C0 4.47599 4.477 -0.00100708 10 -0.00100708C15.523 -0.00100708 20 4.47599 20 9.99899C20 15.522 15.523 19.999 10 19.999C4.477 19.999 0 15.522 0 9.99899ZM10 5.99999C10.2652 5.99999 10.5196 6.10535 10.7071 6.29289C10.8946 6.48042 11 6.73478 11 6.99999V8.99999H13C13.2652 8.99999 13.5196 9.10535 13.7071 9.29289C13.8946 9.48042 14 9.73478 14 9.99999C14 10.2652 13.8946 10.5196 13.7071 10.7071C13.5196 10.8946 13.2652 11 13 11H11V13C11 13.2652 10.8946 13.5196 10.7071 13.7071C10.5196 13.8946 10.2652 14 10 14C9.73478 14 9.48043 13.8946 9.29289 13.7071C9.10536 13.5196 9 13.2652 9 13V11H7C6.73478 11 6.48043 10.8946 6.29289 10.7071C6.10536 10.5196 6 10.2652 6 9.99999C6 9.73478 6.10536 9.48042 6.29289 9.29289C6.48043 9.10535 6.73478 8.99999 7 8.99999H9V6.99999C9 6.73478 9.10536 6.48042 9.29289 6.29289C9.48043 6.10535 9.73478 5.99999 10 5.99999Z" fill="#4CAF50"/>
</svg>
